# xmcd CD database file
#
# Track frame offsets:
#	150
#	15045
#	27194
#	38844
#	53065
#	64956
#	74698
#	89583
#	103833
#	115248
#	129578
#	140122
#
# Disc length: 2023 seconds
#
# Revision: 0
# Processed by: cddbd v1.4PL0 Copyright (c) Steve Scherf et al.
# Submitted via: CDex 1.40Beta8
#
DISCID=ab07e50c
DTITLE=Major Dundee - Rainy river
DYEAR=1998
DGENRE=Country
TTITLE0=Cowboy country
TTITLE1=De Nada
TTITLE2=Carolina
TTITLE3=Rainy river
TTITLE4=When she's in your arms
TTITLE5=On and on
TTITLE6=Blue cafe
TTITLE7=I love women
TTITLE8=Bonita bonita
TTITLE9=Hey that's me
TTITLE10=Oughtta be blue
TTITLE11=What my love can do
EXTD=YEAR: 1998 ID3G: 2
EXTT0=
EXTT1=
EXTT2=
EXTT3=
EXTT4=
EXTT5=
EXTT6=
EXTT7=
EXTT8=
EXTT9=
EXTT10=
EXTT11=
PLAYORDER=
